<svg width="32" height="32" xmlns="http://www.w3.org/2000/svg"><path d="M4 4h2v2H4zm11 0h2v2h-2zm11 0h2v2h-2zm0 11h2v2h-2zm0 11h2v2h-2zm-11 0h2v2h-2zM4 26h2v2H4zm0-11h2v2H4zm4-7h16v16H8zm10-3.5h1v1h-1zm2 0h1v1h-1zm2 0h1v1h-1zm2 0h1v1h-1zM26.5 7h1v1h-1zm0 2h1v1h-1zm0 2h1v1h-1zm0 2h1v1h-1zm0 5h1v1h-1zm0 2h1v1h-1zm0 2h1v1h-1zm0 2h1v1h-1zm-22-6h1v1h-1zm0 2h1v1h-1zm0 2h1v1h-1zm0 2h1v1h-1zm0-17h1v1h-1zm0 2h1v1h-1zm0 2h1v1h-1zm0 2h1v1h-1zM7 4.5h1v1H7zm2 0h1v1H9zm2 0h1v1h-1zm2 0h1v1h-1zm-6 22h1v1H7zm2 0h1v1H9zm2 0h1v1h-1zm2 0h1v1h-1zm5 0h1v1h-1zm2 0h1v1h-1zm2 0h1v1h-1zm2 0h1v1h-1z" fill="#efefef"/></svg>