<svg width="32" height="32" xmlns="http://www.w3.org/2000/svg"><path d="M17.716 10.838c-2.441-.486-5.469-.155-3.855 1.125 1.613 1.28 1.846 3.376-1.472 2.444-5.043-1.416-4.61 5.725 1.249 6.612 10.642 1.611 12.246-8.557 4.078-10.18zm.016 1.668c-.015 1.006-1.78.76-1.71 0 .106-1.139 1.721-.772 1.71 0zm2.9 1.426c-.06 1.547-2.16 1.008-2.117 0 .06-1.415 2.157-1.007 2.118 0zm.913 2.96c-.003 2.015-2.901 1.33-2.802 0 .134-1.799 2.804-1.547 2.802 0zm-7.66.694c-.326 1.885-3.433 1.075-3.154-.351.407-2.073 3.45-1.347 3.155.351zm4.179 1.212c.014 1.855-3.306 1.554-3.221.095.125-2.155 3.21-1.528 3.22-.095z" fill-opacity=".541"/></svg>