<svg width="32" height="32" xmlns="http://www.w3.org/2000/svg"><path d="M16.246 11.018l.457 2.475-8.473 1.72 2.03 9.258 11.963-2.43-1.373-6.256 3.404-.628 1.912 8.722-18.402 3.739-3.123-14.242z"/><path d="M21.1 20.818l-10.068 2.301-.61-2.265c-.103-.483 2.11-3.54 2.713-3.691.603-.152 3.506 2.505 3.506 2.505s1.249-1.79 1.69-1.87c.441-.08 2.113.847 2.265 1.33zm1.317-6.767l-2.644-.203s.305-1.824.356-2.517c.051-.694-.215-1.656-1.055-1.843a12.256 12.256 0 0 0-1.475-.242l-.267 1.297-2.745-3.306 3.66-1.932-.266 1.399s2.277.55 3.038.915 1.729 1.347 1.729 2.974c0 1.628-.331 3.458-.331 3.458z"/></svg>