<svg width="32" height="32" xmlns="http://www.w3.org/2000/svg"><path d="M22.694 4.563l-3.6 3.64L17.83 6.94l-3.582 3.591 1.911 1.893L5.562 23.13s-.899.948-.742 1.66 1.72 2.196 2.506 2.38 1.617-.67 1.617-.67l10.62-10.702 1.876 1.86 3.57-3.576-1.415-1.406s3-3.065 3.607-3.646 1.13-2.106.568-2.79-1.12-1.146-1.913-1.9-2.687-.256-3.162.224zM19 15.24S9.143 25.093 8.282 25.958c-.86.865-3.06-1.195-2.197-2.073.865-.877 10.705-10.834 10.705-10.834zM4.64 26.014l-1.117 1.409 1.091 1.081L6.04 27.31s-.444-.148-.879-.54c-.435-.39-.52-.755-.52-.755zm-.04.8l.567.552-.578.507-.44-.464z" fill="#efefef"/></svg>