<svg width="32" height="32" xmlns="http://www.w3.org/2000/svg"><path d="M16.92 9.902c-.645.04-3.221.179-5.861 2.268s-3.686 5.236-3.686 5.236l1.29 1.082c-1.876 2.246-3.733 4.434-3.538 6.307.198 1.898 1.387 2.8 2.656 2.736 1.156-.058 2.605-.872 2.157-2.719-.448-1.847-1.115-3.248.048-5.212l7.506 6.298s3.22-1.05 5.618-2.873 4.296-4.55 4.296-4.55l-5.609-4.717c-.945 1.608-2.458 3.77-2.874 4.256-.416.487-1.042.568-1.531.223s-.374-1.06-.181-1.351 2.104-3.003 2.947-4.505l-2.49-2.094c1.435-1.69 3.845-5.866 5.126-5.025s-.11 4.141-2.35 8.04c-.844 1.468-2.386 3.457-2.702 3.85-.315.394.461.901.749.508.287-.393 1.812-2.422 2.685-3.937 2.555-4.448 4.215-8.448 2.186-9.452s-5.36 3.935-6.442 5.631zm.12 1.962c.799.699-.224 3.068-2.474 4.589s-4.585 1.999-5.216 1.065.85-3.228 2.931-4.446 3.961-1.906 4.76-1.208z" fill="#efefef"/></svg>