<svg xmlns="http://www.w3.org/2000/svg" width="128" height="128"><circle cx="64" cy="64" r="64" fill="#00838f"/><path d="M29 29h5.833v5.833H29zm32.083 0h5.834v5.833h-5.834zm32.084 0H99v5.833h-5.833zm0 32.083H99v5.834h-5.833zm0 32.084H99V99h-5.833zm-32.084 0h5.834V99h-5.834zm-32.083 0h5.833V99H29zm0-32.084h5.833v5.834H29zm11.667-20.416h46.666v46.666H40.667zm29.166-10.209h2.917v2.917h-2.917zm5.834 0h2.916v2.917h-2.916zm5.833 0h2.917v2.917H81.5zm5.833 0h2.917v2.917h-2.917zm7.292 7.292h2.917v2.917h-2.917zm0 5.833h2.917V46.5h-2.917zm0 5.834h2.917v2.916h-2.917zm0 5.833h2.917v2.917h-2.917zm0 14.583h2.917v2.917h-2.917zm0 5.834h2.917v2.916h-2.917zm0 5.833h2.917v2.917h-2.917zm0 5.833h2.917v2.917h-2.917zm-64.167-17.5h2.917v2.917h-2.917zm0 5.834h2.917v2.916h-2.917zm0 5.833h2.917v2.917h-2.917zm0 5.833h2.917v2.917h-2.917zm0-49.583h2.917v2.917h-2.917zm0 5.833h2.917V46.5h-2.917zm0 5.834h2.917v2.916h-2.917zm0 5.833h2.917v2.917h-2.917zm7.292-24.792h2.917v2.917H37.75zm5.833 0H46.5v2.917h-2.917zm5.834 0h2.916v2.917h-2.916zm5.833 0h2.917v2.917H55.25zm-17.5 64.167h2.917v2.917H37.75zm5.833 0H46.5v2.917h-2.917zm5.834 0h2.916v2.917h-2.916zm5.833 0h2.917v2.917H55.25zm14.583 0h2.917v2.917h-2.917zm5.834 0h2.916v2.917h-2.916zm5.833 0h2.917v2.917H81.5zm5.833 0h2.917v2.917h-2.917z" fill="#fff"/></svg>