<svg width="305" height="152" xmlns="http://www.w3.org/2000/svg"><path d="M139.94 15.9l-6.592 24.609c9.067 4.359 20.33 1.26 22.051 0l5.313-19.814c-5.705-2.973-12.293-4.947-20.771-4.795zm40.855 10.627l-3.201 2.984c.777.694 1.623 1.175 2.607 1.165l.594-4.149zm-7.44 6.941l-3.105 7.041c2.481 3.571 4.962 1.7 7.443 0l1.64-3.752c-2.066-.664-4.114-1.458-5.976-3.287l-.001-.002zm16.988 80.393l-7.787 21.434h4.287l1.165-3.695h7.98l1.178 3.695h4.14l-7.755-21.434h-3.207zm39.25 0v3.73h5.672v17.706h4.002v-17.705h5.672v-3.73h-15.346zm-60.736.055v21.381h4.004v-7.928l3.254-.16c2.457-.12 3.602-.337 4.672-.886 3.575-1.833 4.494-6.942 1.82-10.123-1.606-1.91-2.96-2.268-8.662-2.276l-5.088-.008zm34.371 0v21.381h4.004v-21.38h-4.004zm7.674 0v21.381l3.803-.002v-15.03l9.004 15.032h3.88v-21.38h-4.323l-.184 12.968-8.342-12.967-3.838-.002zm-38.04 3.676h2.806c2.725 0 2.835.028 3.674 1.025 1.337 1.59.992 3.554-.778 4.471-.625.323-1.88.516-3.35.516h-2.353v-6.012zm19.1 1.35l2.929 9.2h-5.809l2.88-9.2z" fill="#fe7600"/><path d="M138.5 21.276l-.614 2.292 8.827 2.052.612-2.288zm-1.18 4.404l-.575 2.149 5.533 1.288.577-2.147zm40.274 3.833l-4.239 3.955c1.864 1.831 3.91 2.625 5.976 3.288l.868-6.083c-.983.011-1.827-.466-2.605-1.16zm-12.895.065l-2.234 5.612c.527 3.68 2.516 3.57 5.013 2.16l2.221-5.921zm-28.558.509l-.586 2.188 8.827 2.056.586-2.188zm-1.242 4.64l-.485 1.805 5.534 1.29.482-1.805zm-1.099 4.105l-.45 1.678c3.803 3.435 5.794 3.622 8.86.278z" fill="#fde9d0"/><path d="M172.43 16.795c-5.307 1.577-8.288 8.43-7.732 12.783 1.373 1.284 3.125 1.815 4.998 1.852 4.208-3.596 4.35-10.625 2.734-14.635zm-9.97 18.393L160 40.51h6.483l.994-3.16c-1.671-.065-3.343-.595-5.014-2.162h-.004zm-45.116 5.322s1.602 27.977 3.19 41.877c.792 6.633 1.05 7.586 2.273 8.508 2.988 2.247 17.838 8.83 25.826 11.441 1.562.512 2.72.788 3.877.768 3.302-20.64 7.21-41.238 0-62.594h-35.166zm-32.56 73.326c-4.21 0-7.6 3.136-7.6 7.346v6.697c0 4.21 3.39 7.6 7.6 7.6h.634c4.21 0 7.602-3.39 7.602-7.6v-6.697c0-4.21-3.392-7.346-7.602-7.346h-.635zm17.573 0c-4.21 0-7.6 3.136-7.6 7.346v6.697c0 4.21 3.39 7.6 7.6 7.6h.635a7.579 7.579 0 0 0 7.467-6.205h-3.988a3.676 3.676 0 0 1-3.504 2.564h-.366a3.693 3.693 0 0 1-3.699-3.701v-7.244a3.69 3.69 0 0 1 3.7-3.7h.365a3.682 3.682 0 0 1 3.632 3.061h3.93c-.456-3.768-3.64-6.418-7.537-6.418h-.635zm10.104.026V135.3h4.008v-6.194l2.912-3.472 6.006 9.664h4.508l-7.707-13.012 7.062-8.424h-4.988l-7.793 9.293v-9.293h-4.008zm-52.389.056v21.38h4.004v-8.018h2.442c5.753 0 8.926-2.517 8.896-7.055-.015-2.3-1.979-5.15-4.102-5.953-.517-.195-3.254-.354-6.09-.354h-5.15zm71.41 0v21.38h14.35v-3.676H135.82v-5.344h8.344v-3.676h-8.344v-5.01h10.012v-3.674H131.482zm16.352 0v3.674h5.676v17.71l4.17-.005v-17.703h5.506v-3.676h-15.352zm-62.807 3.276h.364a3.694 3.694 0 0 1 3.7 3.7v7.243a3.694 3.694 0 0 1-3.7 3.701h-.364a3.693 3.693 0 0 1-3.7-3.7v-7.245a3.692 3.692 0 0 1 3.7-3.7zm-20.949.064h2.198c1.323 0 2.65.212 3.326.531 2.292 1.09 2.25 4.386-.067 5.356-.605.253-2.079.46-3.279.46h-2.182v-3.173l.004-3.174z" fill="#16a4b7"/><path d="M152.51 40.51h35.197l-.23 4.105c-1.096 19.47-2.9 39.585-3.918 43.67-.31 1.245-.594 1.524-2.97 2.94-6.431 3.83-20.79 11.89-28.079 11.877-.043-20.845-.007-41.748 0-62.593z" fill="#008a95"/><path d="M120.66 43.465l.567 8.947 3.282-.536c-.1-1.658-.338-5.292-.338-5.292h5.212v-3.119zm15.431 0v3.119h12.884v-3.119zm19.588 0v3.119h13.079v-3.119zm19.788 0v3.119h5.4s-.273 3.76-.373 5.281l3.251.529c.25-3.566.633-8.929.633-8.929zm4.551 15.133a747.8 747.8 0 0 1-1.086 13.113l3.222.527a955.53 955.53 0 0 0 1.114-13.111zm-55.078.018l-3.268.532c.298 4.287.636 8.827 1.005 13.131l3.26-.532a790.073 790.073 0 0 1-1-13.13zm53.343 19.804a298.43 298.43 0 0 1-.758 6.658c-.25 1.003-.481 1.23-2.395 2.37-.45.268-1.157.654-1.695.963l1.322 2.783c1.097-.621 2.33-1.304 3.171-1.806 2.153-1.282 2.409-1.538 2.69-2.664.305-2.394.6-5.044.883-7.779zm-51.72.036l-3.26.53c.082.796.164 1.677.245 2.396.716 6.007.952 6.87 2.06 7.705 1.215.65 2.826 1.447 4.343 2.21l1.307-2.75c-.89-.455-1.936-.966-2.688-1.369-.986-.745-1.191-1.507-1.83-6.853-.059-.524-.117-1.3-.177-1.87zm10.728 13.022l-1.308 2.757c4.204 1.946 8.503 3.75 11.86 4.828l1.32-2.773c-3.218-.945-7.603-2.817-11.873-4.812zm30.255.168c-4.17 2.135-7.672 3.863-11.326 4.644l1.344 2.826c3.766-.972 7.13-2.628 11.288-4.732z" fill="#fff"/></svg>