<svg width="48" height="48" xmlns="http://www.w3.org/2000/svg"><path d="M16.955-.014l-3.629 13.551c4.992 2.4 11.192.694 12.14 0l2.925-10.91C25.25.99 21.623-.097 16.955-.013zm22.494 5.852l-1.762 1.644c.428.382.894.646 1.436.64zM35.353 9.66l-1.709 3.877c1.366 1.966 2.732.936 4.098 0l.902-2.066c-1.137-.366-2.265-.803-3.29-1.81z" fill="#fe7600"/><path d="M16.162 2.947l-.338 1.262 4.86 1.13.337-1.26zm-.65 2.425l-.316 1.183 3.046.709.318-1.182zm22.175 2.11L35.353 9.66c1.026 1.008 2.153 1.445 3.29 1.81l.478-3.349c-.541.006-1.006-.257-1.434-.639zm-7.1.036l-1.23 3.09c.29 2.026 1.385 1.965 2.76 1.189l1.223-3.26zm-15.724.28l-.323 1.205 4.86 1.132.323-1.205zm-.684 2.555l-.267.994 3.047.71.265-.994zm-.605 2.26l-.248.924c2.094 1.891 3.19 1.994 4.878.153z" fill="#fde9d0"/><path d="M34.844.48c-2.922.868-4.564 4.641-4.258 7.038.756.707 1.721 1 2.752 1.02 2.317-1.98 2.396-5.85 1.506-8.058zm-5.49 10.127L28 13.537h3.569l.547-1.74c-.92-.036-1.84-.327-2.76-1.19zm-24.84 2.93s.882 15.404 1.756 23.057c.436 3.652.578 4.176 1.252 4.684 1.645 1.237 9.821 4.862 14.219 6.3.86.282 1.498.433 2.135.422 1.818-11.364 3.97-22.705 0-34.463z" fill="#16a4b7"/><path d="M23.876 13.537h19.379l-.127 2.26c-.603 10.72-1.596 21.795-2.157 24.045-.171.685-.327.839-1.635 1.618-3.541 2.109-11.447 6.547-15.46 6.54-.024-11.477-.004-22.986 0-34.463z" fill="#008a95"/><path d="M6.344 15.164l.312 4.926 1.807-.295c-.055-.913-.186-2.914-.186-2.914h2.87v-1.717zm8.496 0v1.717h7.094v-1.717zm10.785 0v1.717h7.201v-1.717zm10.895 0v1.717h2.973s-.15 2.07-.205 2.908l1.79.291c.137-1.963.348-4.916.348-4.916zm2.506 8.332a411.73 411.73 0 0 1-.598 7.22l1.774.29c.227-2.47.438-4.968.613-7.219zm-30.326.01l-1.799.293c.164 2.36.35 4.86.553 7.23l1.795-.293c-.21-2.481-.39-4.875-.55-7.23zM38.07 34.41a164.31 164.31 0 0 1-.417 3.666c-.138.552-.265.677-1.319 1.305-.247.147-.637.36-.933.53l.728 1.532c.604-.342 1.283-.718 1.746-.994 1.185-.706 1.326-.847 1.481-1.467.168-1.318.33-2.777.486-4.283zm-28.476.02l-1.795.292c.045.438.09.923.135 1.319.394 3.307.524 3.782 1.134 4.242.669.358 1.556.797 2.391 1.217l.72-1.514c-.49-.251-1.066-.532-1.48-.754-.543-.41-.656-.83-1.008-3.773-.032-.289-.064-.716-.097-1.03zM15.5 41.6l-.72 1.518c2.315 1.071 4.682 2.064 6.53 2.658l.727-1.527c-1.772-.52-4.186-1.551-6.537-2.649zm16.658.092c-2.296 1.176-4.224 2.127-6.236 2.557l.74 1.556c2.074-.535 3.926-1.447 6.215-2.605z" fill="#fff"/></svg>